<?xml version="1.0" standalone="no"?>
<!DOCTYPE svg PUBLIC "-//W3C//DTD SVG 20010904//EN"
 "http://www.w3.org/TR/2001/REC-SVG-20010904/DTD/svg10.dtd">
<svg version="1.0" xmlns="http://www.w3.org/2000/svg"
 width="640.000000pt" height="640.000000pt" viewBox="0 0 640.000000 640.000000"
 preserveAspectRatio="xMidYMid meet">
<metadata>
Created by potrace 1.14, written by Peter Selinger 2001-2017
</metadata>
<g transform="translate(0.000000,640.000000) scale(0.100000,-0.100000)"
fill="#000000" stroke="none">
<path d="M3099 5755 c-2 -2 -20 -6 -39 -8 -19 -3 -35 -6 -35 -7 0 -1 -9 -3
-20 -5 -37 -5 -133 -43 -191 -75 -72 -40 -154 -106 -213 -171 l-43 -48 -109 0
c-60 0 -114 -3 -119 -6 -6 -3 -10 -3 -10 2 0 4 -25 8 -55 8 -30 0 -55 -4 -55
-8 0 -5 -4 -6 -8 -3 -7 4 -71 7 -112 5 -8 0 -69 0 -135 1 -66 1 -124 0 -130
-1 -5 -1 -13 -1 -16 -1 -19 3 -342 4 -394 1 -22 0 -47 -1 -55 0 -88 7 -166 -6
-225 -36 -138 -71 -203 -229 -158 -381 31 -105 137 -199 243 -215 37 -6 138
-10 155 -7 6 1 13 2 16 2 19 -3 342 -4 394 -1 22 0 46 1 53 0 6 -1 18 -1 25
-2 16 -1 122 0 167 2 19 1 42 1 50 1 43 -2 248 -3 256 -1 35 6 84 -3 84 -16 0
-38 86 -245 103 -245 4 0 7 -6 7 -13 0 -7 15 -30 34 -50 18 -20 32 -37 30 -37
-3 0 15 -19 38 -42 58 -58 131 -112 178 -134 8 -4 23 -14 34 -23 10 -9 21 -14
25 -11 3 3 8 -21 11 -53 3 -32 2 -61 -2 -64 -5 -2 -6 -8 -4 -12 5 -8 6 -23 6
-126 1 -27 2 -98 3 -158 1 -59 0 -107 -3 -107 -3 0 -5 -25 -5 -55 0 -30 2 -55
5 -55 4 0 4 -117 -1 -130 -1 -3 -1 -8 0 -13 1 -8 1 -69 0 -97 0 -14 0 -144 1
-299 1 -35 1 -66 2 -70 0 -3 0 -10 -1 -16 -1 -5 -1 -64 -1 -130 1 -66 0 -136
0 -155 -1 -19 -2 -42 -1 -50 0 -8 0 -40 0 -70 0 -30 0 -62 0 -70 1 -8 1 -33 0
-55 -1 -22 -1 -44 -1 -50 1 -5 1 -59 1 -120 1 -197 2 -238 7 -246 2 -4 1 -10
-3 -12 -5 -3 -6 -55 -3 -116 3 -61 3 -111 0 -111 -3 0 -5 -25 -5 -55 0 -30 2
-55 5 -55 4 0 4 -117 -1 -130 -1 -3 -1 -8 -1 -11 2 -11 2 -71 2 -166 l0 -91
-60 -4 c-33 -1 -60 -1 -60 2 0 3 -27 3 -60 0 -33 -3 -60 -3 -60 0 0 3 -25 5
-55 5 -30 0 -55 -2 -55 -5 0 -3 -29 -5 -65 -5 -36 0 -65 2 -65 5 0 3 -25 5
-55 5 -30 0 -55 -2 -55 -5 0 -3 -29 -5 -65 -5 -36 0 -65 2 -65 5 0 3 -25 5
-55 5 -30 0 -55 -2 -55 -5 0 -3 -29 -5 -65 -5 -36 0 -65 2 -65 5 0 3 -25 5
-55 5 -30 0 -55 -2 -55 -5 0 -3 -29 -5 -65 -5 -36 0 -65 2 -65 5 0 3 -25 5
-55 5 -30 0 -55 -2 -55 -5 0 -3 -29 -5 -65 -5 -36 0 -65 2 -65 5 0 3 -28 4
-62 2 -35 -1 -81 -2 -103 -2 -111 -1 -226 -74 -281 -180 -24 -46 -28 -66 -28
-130 0 -41 3 -87 6 -101 14 -60 94 -159 149 -185 97 -46 -42 -43 2069 -44
1964 0 1975 0 2036 20 74 25 147 90 184 165 21 42 25 64 24 135 -1 101 -23
158 -88 224 -64 64 -125 89 -223 90 -46 1 -83 3 -83 6 0 3 -25 5 -55 5 -30 0
-55 -2 -55 -5 0 -3 -29 -5 -65 -5 -36 0 -65 2 -65 5 0 3 -25 5 -55 5 -30 0
-55 -2 -55 -5 0 -3 -29 -5 -65 -5 -36 0 -65 2 -65 5 0 3 -25 5 -55 5 -30 0
-55 -2 -55 -5 0 -3 -29 -5 -65 -5 -36 0 -65 2 -65 5 0 3 -25 5 -55 5 -30 0
-55 -2 -55 -5 0 -3 -29 -5 -65 -5 -36 0 -65 2 -65 5 0 3 -25 5 -55 5 -30 0
-55 -2 -55 -5 0 -3 -29 -5 -65 -5 -36 0 -65 2 -65 5 0 3 -25 5 -55 5 -30 0
-55 -2 -55 -5 0 -3 -29 -5 -65 -5 -36 0 -65 3 -65 6 0 3 -18 4 -39 2 l-39 -3
-4 65 c-1 36 -1 65 2 65 3 0 5 25 5 55 0 30 -2 55 -5 55 -4 0 -4 117 1 130 1
3 1 8 0 13 -1 8 -1 69 0 97 0 14 0 144 -1 299 -1 35 -1 66 -2 70 0 3 0 11 1
16 1 6 1 64 1 130 -1 66 0 136 0 155 1 19 2 42 1 50 0 8 0 40 0 70 0 30 0 62
0 70 -1 8 -1 33 0 55 1 22 1 45 1 50 -1 6 -1 60 -1 120 -1 197 -2 238 -7 246
-2 4 -1 10 3 12 5 3 6 55 3 116 -3 61 -3 111 0 111 3 0 5 25 5 55 0 30 -2 55
-5 55 -4 0 -4 117 1 130 1 3 1 8 1 11 -1 7 -2 48 -2 124 -1 28 -2 98 -3 158
-1 59 0 107 3 107 3 0 5 25 5 55 0 30 -2 55 -5 55 -4 0 -4 57 -1 136 1 7 22
22 47 34 26 12 71 39 100 61 116 85 192 177 253 304 31 66 61 148 61 169 0 10
16 15 50 18 28 1 50 1 50 -2 0 -3 25 -5 55 -5 30 0 55 4 55 8 0 5 4 6 8 3 7
-4 71 -7 112 -5 8 0 69 0 135 -1 66 -1 125 0 130 1 6 1 13 1 16 1 19 -3 342
-4 394 -1 22 0 47 1 55 0 138 -11 240 24 317 108 108 117 107 309 -1 425 -34
37 -106 85 -140 93 -28 7 -140 14 -196 13 -25 -1 -49 -1 -55 -1 -145 2 -258 2
-260 -1 -2 -2 -33 -1 -69 2 -36 3 -72 3 -80 0 -8 -3 -55 -3 -103 0 -48 3 -116
3 -151 0 -34 -3 -62 -3 -62 0 0 3 -25 5 -55 5 -30 0 -55 -4 -55 -8 0 -5 -4 -6
-8 -3 -7 4 -65 7 -114 5 -99 -3 -170 4 -181 17 -75 91 -180 176 -277 221 -97
46 -97 46 -196 66 -65 13 -246 22 -255 12z"/>
<path d="M1165 4466 c-120 -30 -218 -94 -288 -188 -26 -35 -53 -84 -167 -303
-40 -77 -94 -180 -120 -230 -26 -49 -72 -137 -102 -195 -31 -58 -78 -148 -105
-200 -28 -52 -68 -129 -89 -170 -21 -41 -43 -78 -47 -81 -5 -3 -8 -9 -8 -13 1
-6 -30 -71 -78 -160 -76 -141 -132 -257 -145 -299 -26 -88 -18 -203 29 -372
13 -47 83 -175 127 -232 53 -69 170 -178 220 -204 13 -6 25 -15 28 -19 5 -6
162 -83 205 -100 32 -13 158 -49 190 -55 17 -2 39 -7 50 -9 11 -2 40 -7 65
-11 25 -3 58 -9 75 -11 25 -4 239 -16 270 -15 6 0 30 1 55 2 25 2 51 0 57 -4
5 -3 13 -3 17 0 3 4 30 8 59 9 47 3 157 17 232 30 52 9 219 55 255 71 79 34
165 77 168 85 2 4 8 8 14 8 15 0 105 66 162 119 97 92 201 256 228 360 42 164
44 185 34 280 -4 35 -14 77 -22 92 -8 16 -12 29 -9 29 3 0 -14 35 -36 78 -23
42 -69 129 -102 192 -32 63 -79 151 -102 195 -23 44 -73 139 -110 210 -37 72
-88 168 -113 215 -55 104 -171 325 -230 440 -133 257 -160 297 -241 361 -90
71 -172 100 -291 104 -47 2 -107 -2 -135 -9z m133 -478 c5 -7 30 -51 54 -98
57 -107 142 -269 213 -405 30 -58 79 -151 109 -207 104 -198 180 -344 244
-468 35 -69 69 -131 74 -137 6 -7 7 -13 2 -13 -5 0 -4 -4 1 -8 6 -4 20 -26 33
-49 l23 -42 -33 0 c-18 0 -66 -2 -106 -3 -39 -2 -72 -1 -72 2 0 3 -25 5 -55 5
-30 0 -55 -2 -55 -5 0 -3 -29 -5 -65 -5 -36 0 -65 2 -65 5 0 3 -25 5 -55 5
-30 0 -55 -2 -55 -5 0 -3 -29 -5 -65 -5 -36 0 -65 2 -65 5 0 3 -25 5 -55 5
-30 0 -55 -4 -55 -8 0 -5 -4 -6 -8 -3 -8 4 -77 8 -112 5 -8 -1 -35 -1 -60 0
-25 1 -52 1 -60 0 -8 -1 -31 -1 -50 0 -45 2 -151 3 -167 2 -29 -2 -40 -2 -83
-2 -25 0 -52 0 -60 0 -8 0 -42 0 -76 1 l-61 2 37 72 c51 97 154 294 328 626
33 63 82 158 109 210 28 52 78 149 113 215 35 66 82 157 105 202 57 113 71
128 93 101z"/>
<path d="M4975 4458 c-38 -11 -72 -23 -75 -27 -3 -3 -22 -15 -43 -26 -56 -29
-133 -109 -176 -184 -21 -36 -80 -147 -132 -246 -51 -99 -110 -211 -130 -250
-20 -38 -59 -113 -86 -165 -47 -92 -144 -276 -226 -430 -144 -273 -240 -463
-250 -495 -6 -19 -18 -90 -19 -110 -1 -36 12 -138 22 -176 7 -24 13 -48 15
-54 17 -74 77 -195 137 -272 53 -69 170 -178 220 -204 13 -6 25 -15 28 -19 5
-6 162 -83 205 -100 32 -13 158 -49 190 -55 17 -2 39 -7 50 -9 11 -2 40 -7 65
-11 25 -3 58 -9 75 -11 25 -4 239 -16 270 -15 6 0 30 1 55 2 25 2 51 0 57 -4
5 -3 13 -3 17 0 3 4 30 8 59 9 47 3 157 17 232 30 52 9 219 55 255 71 79 34
165 77 168 85 2 4 8 8 14 8 6 0 34 17 62 37 120 86 219 202 282 330 37 76 43
95 69 208 13 57 14 203 2 251 -6 23 -69 152 -146 299 -29 55 -80 152 -113 215
-33 63 -64 119 -69 125 -5 5 -9 17 -9 26 0 10 -3 19 -7 21 -5 2 -28 41 -52 88
-87 167 -123 235 -133 248 -6 6 -7 12 -3 12 4 0 3 6 -3 13 -11 13 -39 65 -167
312 -146 281 -173 323 -260 391 -121 95 -293 126 -450 82z m163 -470 c11 -15
49 -85 152 -283 114 -219 220 -421 322 -615 25 -47 76 -143 113 -215 37 -71
75 -145 86 -162 10 -18 16 -33 12 -33 -3 0 1 -8 9 -17 13 -16 31 -53 28 -61 0
-1 6 -10 15 -19 9 -8 14 -17 12 -19 -3 -4 -85 -5 -127 -3 -8 1 -31 1 -50 0
-19 -1 -42 -1 -50 0 -8 0 -40 0 -70 0 -30 0 -62 0 -70 0 -8 1 -31 1 -50 0 -19
-1 -42 -1 -50 0 -8 0 -40 0 -70 0 -30 0 -62 0 -70 0 -8 1 -31 1 -50 0 -19 -1
-42 -1 -50 0 -8 0 -40 0 -70 0 -30 0 -62 0 -70 0 -8 1 -31 1 -50 0 -19 -1 -42
-1 -50 0 -8 0 -40 0 -70 0 -30 0 -62 0 -70 0 -8 1 -31 1 -50 0 -19 -1 -42 -1
-50 0 -8 0 -40 0 -70 0 -30 0 -62 0 -70 0 -8 1 -31 1 -50 0 -105 -3 -150 -1
-150 7 0 10 16 44 35 72 5 8 10 21 11 28 1 7 7 18 12 25 6 7 40 71 77 142 37
72 91 175 120 230 29 55 81 154 115 220 35 66 80 152 100 190 21 39 79 151
130 250 52 99 97 182 102 183 4 2 8 10 8 17 0 21 34 75 46 75 6 0 16 -6 22
-12z"/>
</g>
</svg>
